<svg width="320" height="44" viewBox="0 0 320 44" fill="none" xmlns="http://www.w3.org/2000/svg">
<rect width="320" height="44" rx="15" fill="#FFE342"/>
<path d="M109.822 17.1562C109.809 20.7656 108.701 23.9785 104.23 26.1797L103.52 25.209C105.734 24.1221 107.054 22.8027 107.785 21.2441L103.779 21.627L103.588 20.5059L108.182 20.1914C108.366 19.5693 108.476 18.9062 108.523 18.209H104.23V17.1562H109.822ZM112.994 15.9121V20.8066H114.895V21.873H112.994V28.1484H111.695V15.9121H112.994ZM121.922 17.1562C121.908 20.7656 120.801 23.9785 116.33 26.1797L115.619 25.209C117.834 24.1221 119.153 22.8027 119.885 21.2441L115.879 21.627L115.688 20.5059L120.281 20.1914C120.466 19.5693 120.575 18.9062 120.623 18.209H116.33V17.1562H121.922ZM125.094 15.9121V20.8066H126.994V21.873H125.094V28.1484H123.795V15.9121H125.094ZM133.229 16.6504C135.854 16.6641 137.754 17.9492 137.754 19.9043C137.754 21.7432 136.161 22.9531 133.871 23.1445V25.5508H138.861V26.6309H127.65V25.5508H132.586V23.1445C130.31 22.9531 128.717 21.7432 128.717 19.9043C128.717 17.9492 130.617 16.6641 133.229 16.6504ZM133.229 17.7168C131.342 17.7031 129.975 18.5781 129.975 19.9043C129.975 21.2852 131.342 22.1328 133.229 22.1465C135.129 22.1328 136.496 21.2852 136.496 19.9043C136.496 18.5781 135.129 17.7031 133.229 17.7168ZM150.92 22.4746V23.5137H139.723V22.4746H144.672V21.3125H141.186V16.2266H149.553V17.252H142.498V18.25H149.238V19.2344H142.498V20.3145H149.635V21.3125H145.971V22.4746H150.92ZM149.498 24.498V28.1621H148.172V25.5371H140.994V24.498H149.498ZM157.428 16.6504C159.998 16.6504 161.953 18.0039 161.953 20.0684C161.953 22.1328 159.998 23.5 157.428 23.4863C154.857 23.5 152.916 22.1328 152.916 20.0684C152.916 18.0039 154.857 16.6504 157.428 16.6504ZM157.428 17.7031C155.555 17.6895 154.146 18.6465 154.16 20.0684C154.146 21.5039 155.555 22.4199 157.428 22.4199C159.301 22.4199 160.695 21.5039 160.695 20.0684C160.695 18.6465 159.301 17.6895 157.428 17.7031ZM163.061 25.4961V26.5762H151.85V25.4961H163.061ZM175.16 25.6055V26.6992H163.949V25.6055H168.885V23.459H165.316V19.5625H172.508V17.8398H165.289V16.7734H173.793V20.6016H166.602V22.3926H174.08V23.459H170.17V25.6055H175.16ZM190.678 25.6055V26.6992H179.467V25.6055H184.402V23.459H180.834V19.5625H188.025V17.8398H180.807V16.7734H189.311V20.6016H182.119V22.3926H189.598V23.459H185.688V25.6055H190.678ZM201.273 17.1562V18.4688C201.273 20.0547 201.273 21.7773 200.822 24.3887L199.496 24.2656C199.988 21.8184 199.988 20.0137 199.988 18.4688V18.2227H192.77V17.1562H201.273ZM202.736 25.3457V26.4258H191.566V25.3457H202.736ZM213.824 15.9258V24.8262H212.525V15.9258H213.824ZM214.193 26.8496V27.9023H205.812V23.9238H207.125V26.8496H214.193ZM207.18 16.7461C209.025 16.7461 210.434 18.0039 210.434 19.7812C210.434 21.5859 209.025 22.8301 207.18 22.8301C205.334 22.8301 203.912 21.5859 203.912 19.7812C203.912 18.0039 205.334 16.7461 207.18 16.7461ZM207.18 17.8809C206.031 17.8809 205.184 18.6602 205.184 19.7812C205.184 20.9297 206.031 21.6953 207.18 21.6953C208.301 21.6953 209.162 20.9297 209.162 19.7812C209.162 18.6602 208.301 17.8809 207.18 17.8809Z" fill="black"/>
<path d="M30 13C35.5 13 40 16.58 40 21C40 25.42 35.5 29 30 29C28.76 29 27.57 28.82 26.47 28.5C23.55 31 20 31 20 31C22.33 28.67 22.7 27.1 22.75 26.5C21.05 25.07 20 23.13 20 21C20 16.58 24.5 13 30 13Z" fill="black"/>
</svg>
